<svg width="162" height="37" viewBox="0 0 162 37" fill="none" xmlns="http://www.w3.org/2000/svg">
<path fillRule="evenodd" clipRule="evenodd" d="M58.2229 35.1C57.6896 35.1 57.1929 35.0133 56.7329 34.84C56.2796 34.66 55.8829 34.41 55.5429 34.09C55.2096 33.7633 54.9496 33.38 54.7629 32.94C54.5762 32.5 54.4829 32.02 54.4829 31.5C54.4829 30.98 54.5762 30.5 54.7629 30.06C54.9496 29.62 55.2129 29.24 55.5529 28.92C55.8929 28.5933 56.2896 28.3433 56.7429 28.17C57.1962 27.99 57.6929 27.9 58.2329 27.9C58.8062 27.9 59.3296 28 59.8029 28.2C60.2762 28.3933 60.6762 28.6833 61.0029 29.07L60.1629 29.86C59.9096 29.5867 59.6262 29.3833 59.3129 29.25C58.9996 29.11 58.6596 29.04 58.2929 29.04C57.9262 29.04 57.5896 29.1 57.2829 29.22C56.9829 29.34 56.7196 29.51 56.4929 29.73C56.2729 29.95 56.0996 30.21 55.9729 30.51C55.8529 30.81 55.7929 31.14 55.7929 31.5C55.7929 31.86 55.8529 32.19 55.9729 32.49C56.0996 32.79 56.2729 33.05 56.4929 33.27C56.7196 33.49 56.9829 33.66 57.2829 33.78C57.5896 33.9 57.9262 33.96 58.2929 33.96C58.6596 33.96 58.9996 33.8933 59.3129 33.76C59.6262 33.62 59.9096 33.41 60.1629 33.13L61.0029 33.93C60.6762 34.31 60.2762 34.6 59.8029 34.8C59.3296 35 58.8029 35.1 58.2229 35.1ZM99.3931 34.84C99.8531 35.0133 100.35 35.1 100.883 35.1C101.463 35.1 101.99 35 102.463 34.8C102.936 34.6 103.336 34.31 103.663 33.93L102.823 33.13C102.57 33.41 102.286 33.62 101.973 33.76C101.66 33.8933 101.32 33.96 100.953 33.96C100.586 33.96 100.25 33.9 99.9431 33.78C99.6431 33.66 99.3797 33.49 99.1531 33.27C98.9331 33.05 98.7597 32.79 98.6331 32.49C98.5131 32.19 98.4531 31.86 98.4531 31.5C98.4531 31.14 98.5131 30.81 98.6331 30.51C98.7597 30.21 98.9331 29.95 99.1531 29.73C99.3797 29.51 99.6431 29.34 99.9431 29.22C100.25 29.1 100.586 29.04 100.953 29.04C101.32 29.04 101.66 29.11 101.973 29.25C102.286 29.3833 102.57 29.5867 102.823 29.86L103.663 29.07C103.336 28.6833 102.936 28.3933 102.463 28.2C101.99 28 101.466 27.9 100.893 27.9C100.353 27.9 99.8564 27.99 99.4031 28.17C98.9497 28.3433 98.5531 28.5933 98.2131 28.92C97.8731 29.24 97.6097 29.62 97.4231 30.06C97.2364 30.5 97.1431 30.98 97.1431 31.5C97.1431 32.02 97.2364 32.5 97.4231 32.94C97.6097 33.38 97.8697 33.7633 98.2031 34.09C98.5431 34.41 98.9397 34.66 99.3931 34.84ZM146.125 34.84C146.585 35.0133 147.082 35.1 147.615 35.1C148.195 35.1 148.722 35 149.195 34.8C149.669 34.6 150.069 34.31 150.395 33.93L149.555 33.13C149.302 33.41 149.019 33.62 148.705 33.76C148.392 33.8933 148.052 33.96 147.685 33.96C147.319 33.96 146.982 33.9 146.675 33.78C146.375 33.66 146.112 33.49 145.885 33.27C145.665 33.05 145.492 32.79 145.365 32.49C145.245 32.19 145.185 31.86 145.185 31.5C145.185 31.14 145.245 30.81 145.365 30.51C145.492 30.21 145.665 29.95 145.885 29.73C146.112 29.51 146.375 29.34 146.675 29.22C146.982 29.1 147.319 29.04 147.685 29.04C148.052 29.04 148.392 29.11 148.705 29.25C149.019 29.3833 149.302 29.5867 149.555 29.86L150.395 29.07C150.069 28.6833 149.669 28.3933 149.195 28.2C148.722 28 148.199 27.9 147.625 27.9C147.085 27.9 146.589 27.99 146.135 28.17C145.682 28.3433 145.285 28.5933 144.945 28.92C144.605 29.24 144.342 29.62 144.155 30.06C143.969 30.5 143.875 30.98 143.875 31.5C143.875 32.02 143.969 32.5 144.155 32.94C144.342 33.38 144.602 33.7633 144.935 34.09C145.275 34.41 145.672 34.66 146.125 34.84ZM153.941 31.98V33.91H157.891V35H152.641V28H157.751V29.09H153.941V30.91H157.321V31.98H153.941ZM135.28 35V28H136.35L140.21 32.7393V28H141.5V35H140.43L136.57 30.2607V35H135.28ZM128.881 31.98V33.91H132.831V35H127.581V28H132.691V29.09H128.881V30.91H132.261V31.98H128.881ZM120.594 35V28H121.894V33.9H125.554V35H120.594ZM113.608 28V35H118.568V33.9H114.908V28H113.608ZM107.209 33.91V31.98H110.589V30.91H107.209V29.09H111.019V28H105.909V35H111.159V33.91H107.209ZM89.1134 35L91.7098 31.4267L89.2534 28H90.7234L92.515 30.486L94.2834 28H95.6934L93.2444 31.3795L95.8734 35H94.3734L92.4704 32.3358L90.5934 35H89.1134ZM83.6423 31.98V33.91H87.5923V35H82.3423V28H87.4523V29.09H83.6423V30.91H87.0223V31.98H83.6423ZM71.5923 35V28H72.8923V33.9H76.5523V35H71.5923ZM65.2621 28L62.1121 35H63.4521L64.1452 33.38H67.6463L68.3421 35H69.7021L66.5421 28H65.2621ZM65.8925 29.2965L67.2082 32.36H64.5817L65.8925 29.2965ZM50.7896 28V35H52.0896V28H50.7896ZM45.194 35V29.1H42.874V28H48.814V29.1H46.494V35H45.194ZM37.9901 32.5502V35H39.2901V32.5336L42.0301 28H40.7501L38.6817 31.4053L36.6301 28H35.2401L37.9901 32.5502ZM30.0161 35V28H31.3161V33.9H34.9761V35H30.0161ZM23.6859 28L20.5359 35H21.8759L22.5691 33.38H26.0701L26.7659 35H28.1259L24.9659 28H23.6859ZM24.3164 29.2965L25.6321 32.36H23.0055L24.3164 29.2965ZM12.4302 35V28H13.5002L17.3602 32.7393V28H18.6502V35H17.5802L13.7202 30.2607V35H12.4302ZM6.09995 28L2.94995 35H4.28995L4.98314 33.38H8.4842L9.17995 35H10.54L7.37995 28H6.09995ZM6.73043 29.2965L8.04613 32.36H5.41959L6.73043 29.2965Z" fill="#53BBB3"/>
<path fillRule="evenodd" clipRule="evenodd" d="M81 2.19473H88.5L98 13.5484L88.5468 25L81.0468 25L90.992 13.5974L81 2.19473Z" fill="#53BBB3"/>
<path fillRule="evenodd" clipRule="evenodd" d="M21.9268 22.9477H21.9337V25H28V12.9218H27.9931C27.9445 11.5625 27.6257 10.2208 27.0503 8.9622C26.4194 7.59403 25.4972 6.35017 24.3394 5.30345C23.1816 4.25599 21.802 3.42554 20.2837 2.85841C18.7654 2.29202 17.143 2 15.4999 2C13.8568 2 12.2346 2.29202 10.7163 2.85841C9.19796 3.42554 7.82517 4.25599 6.66044 5.30345C5.50264 6.35017 4.58063 7.59403 3.95666 8.9622C3.32577 10.3304 3 11.7971 3 13.2778C3 16.2687 4.31711 19.1374 6.66044 21.2559C9.0107 23.367 12.186 24.5586 15.4999 24.5586C16.0338 24.5586 16.5676 24.5218 17.0945 24.463V19.3655C16.5815 19.4979 16.0407 19.5641 15.4999 19.5641C13.7875 19.5641 12.1514 18.9021 10.9451 17.7251C9.73184 16.5409 9.05243 14.9446 9.05243 13.2778C9.05243 11.611 9.73184 10.0119 10.9451 8.83277C12.1514 7.65364 13.7875 6.99086 15.4999 6.99086C17.2123 6.99086 18.8486 7.65364 20.0618 8.83277C21.185 9.92731 21.8505 11.3845 21.9406 12.9218H21.9337V13.6795C21.9337 13.7162 21.9337 13.753 21.9268 13.7898V22.9477ZM56 13.3191V13.4963V13.6809C56 14.5743 56.1255 15.4677 56.3692 16.3389C56.3692 16.3426 56.371 16.3481 56.3729 16.3537L56.3729 16.3537C56.3747 16.3593 56.3766 16.3648 56.3766 16.3685C56.539 16.9297 56.753 17.476 57.0115 18.0076C57.3437 18.7017 57.7647 19.3589 58.2446 19.9791C58.732 20.5846 59.2784 21.1604 59.8986 21.6847C61.1316 22.7331 62.6009 23.5675 64.2179 24.1361C65.8275 24.7046 67.5628 25 69.3127 25C71.0552 25 72.7903 24.7046 74.3999 24.1361C76.0169 23.5675 77.4864 22.7331 78.7194 21.6847C79.3396 21.1604 79.886 20.5846 80.366 19.9791H69.7334C69.5931 19.9865 69.453 19.9865 69.3127 19.9865C69.165 19.9865 69.0247 19.9865 68.877 19.9791C67.2157 19.8831 65.643 19.2334 64.4542 18.1406C63.8857 17.6237 63.4352 17.0256 63.0956 16.3685C63.0956 16.3611 63.0882 16.3463 63.0808 16.3389H73.5878C73.8315 15.4677 73.957 14.5743 73.957 13.6809V13.4963V13.3191C73.957 12.4256 73.8315 11.5322 73.5878 10.661H63.0808C63.0882 10.6536 63.0956 10.6388 63.0956 10.624C63.4352 9.97426 63.8857 9.37618 64.4542 8.85932C65.643 7.76655 67.2157 7.1168 68.877 7.02081C69.0247 7.01342 69.165 7.01342 69.3127 7.01342C69.453 7.01342 69.5931 7.01342 69.7334 7.02081H80.366C79.886 6.40797 79.3396 5.83948 78.7194 5.31524C77.4864 4.26676 76.0169 3.43236 74.3999 2.86383C72.7903 2.29529 71.0552 2 69.3127 2C67.5628 2 65.8275 2.29529 64.2179 2.86383C62.6009 3.43236 61.1316 4.26676 59.8986 5.31524C59.2784 5.83948 58.732 6.40797 58.2446 7.02081C57.7647 7.64103 57.3437 8.29821 57.0115 8.99227C56.753 9.52389 56.539 10.0702 56.3766 10.624C56.3766 10.6327 56.374 10.6413 56.3719 10.6485C56.3704 10.6536 56.3692 10.6579 56.3692 10.661C56.1255 11.5322 56 12.4256 56 13.3191ZM100.547 2H108.047L97.9811 13.4013L108.047 25H100.547L90.9215 13.3534L100.547 2ZM108 13.5243V13.3467C108 12.4511 108.126 11.5555 108.37 10.6821C108.37 10.6791 108.371 10.6747 108.373 10.6696C108.375 10.6624 108.377 10.6537 108.377 10.6451C108.54 10.09 108.755 9.54226 109.014 9.00934C109.347 8.31358 109.769 7.65481 110.25 7.03307C110.739 6.41873 111.286 5.84885 111.908 5.32333C113.144 4.2723 114.617 3.43586 116.238 2.86594C117.852 2.29601 119.591 2 121.345 2C123.092 2 124.831 2.29601 126.445 2.86594C128.066 3.43586 129.539 4.2723 130.775 5.32333C131.397 5.84885 131.944 6.41873 132.425 7.03307H121.767C121.626 7.02567 121.486 7.02566 121.345 7.02566C121.197 7.02566 121.056 7.02567 120.908 7.03307C119.243 7.12929 117.667 7.78063 116.475 8.87607C115.905 9.39419 115.453 9.99373 115.113 10.6451C115.113 10.6599 115.105 10.6747 115.098 10.6821H125.631C125.875 11.5555 126.001 12.4511 126.001 13.3467V13.5243V13.7094C126.001 14.605 125.875 15.5005 125.631 16.3739H115.098C115.105 16.3813 115.113 16.3962 115.113 16.4036C115.453 17.0623 115.905 17.6619 116.475 18.18C117.667 19.2754 119.243 19.9268 120.908 20.023C121.056 20.0304 121.197 20.0304 121.345 20.0304C121.486 20.0304 121.626 20.0304 121.767 20.023H132.425C131.944 20.6299 131.397 21.2072 130.775 21.7327C129.539 22.7838 128.066 23.6202 126.445 24.1901C124.831 24.7601 123.092 25.0562 121.345 25.0562C119.591 25.0562 117.852 24.7601 116.238 24.1901C114.617 23.6202 113.144 22.7838 111.908 21.7327C111.286 21.2072 110.739 20.6299 110.25 20.023C109.769 19.4013 109.347 18.7425 109.014 18.0467C108.755 17.5138 108.54 16.9661 108.377 16.4036C108.377 16.3999 108.376 16.3943 108.374 16.3888L108.373 16.3856C108.372 16.3827 108.371 16.3799 108.37 16.3775C108.37 16.3762 108.37 16.375 108.37 16.3739C108.126 15.5005 108 14.605 108 13.7094V13.5243ZM133 13.3467V13.5243V13.7094C133 14.605 133.126 15.5005 133.37 16.3739C133.37 16.3776 133.372 16.3832 133.374 16.3888C133.376 16.3943 133.377 16.3999 133.377 16.4036C133.54 16.9661 133.755 17.5138 134.014 18.0467C134.347 18.7425 134.769 19.4013 135.25 20.023C135.739 20.6299 136.286 21.2072 136.908 21.7327C138.144 22.7838 139.617 23.6202 141.238 24.1901C142.852 24.7601 144.591 25.0562 146.345 25.0562C148.092 25.0562 149.831 24.7601 151.445 24.1901C153.066 23.6202 154.539 22.7838 155.775 21.7327C156.397 21.2072 156.944 20.6299 157.425 20.023H146.767C146.626 20.0304 146.486 20.0304 146.345 20.0304C146.197 20.0304 146.056 20.0304 145.908 20.023C144.243 19.9268 142.667 19.2754 141.475 18.18C140.905 17.6619 140.453 17.0623 140.113 16.4036C140.113 16.3962 140.105 16.3813 140.098 16.3739H150.631C150.875 15.5005 151.001 14.605 151.001 13.7094V13.5243V13.3467C151.001 12.4511 150.875 11.5555 150.631 10.6821H140.098C140.105 10.6747 140.113 10.6599 140.113 10.6451C140.453 9.99373 140.905 9.39419 141.475 8.87607C142.667 7.78063 144.243 7.12929 145.908 7.03307C146.056 7.02567 146.197 7.02566 146.345 7.02566C146.486 7.02566 146.626 7.02567 146.767 7.03307H157.425C156.944 6.41873 156.397 5.84885 155.775 5.32333C154.539 4.2723 153.066 3.43586 151.445 2.86594C149.831 2.29601 148.092 2 146.345 2C144.591 2 142.852 2.29601 141.238 2.86594C139.617 3.43586 138.144 4.2723 136.908 5.32333C136.286 5.84885 135.739 6.41873 135.25 7.03307C134.769 7.65481 134.347 8.31358 134.014 9.00934C133.755 9.54226 133.54 10.09 133.377 10.6451C133.377 10.6506 133.376 10.6561 133.375 10.6612L133.373 10.6696C133.372 10.672 133.372 10.6742 133.371 10.6762C133.37 10.6785 133.37 10.6805 133.37 10.6821C133.126 11.5555 133 12.4511 133 13.3467ZM42.0342 7.82248C42.0083 7.81981 41.9823 7.81732 41.9562 7.815C41.9302 7.81732 41.9042 7.81981 41.8782 7.82248V7.80858C41.729 7.79731 41.5779 7.79167 41.4248 7.79167C40.7541 7.79167 40.123 7.90467 39.5324 8.12975C38.9418 8.35482 38.4223 8.66372 37.9758 9.05642C37.5274 9.44913 37.1763 9.9087 36.9206 10.437C36.6658 10.9616 36.5362 11.5209 36.5362 12.1095V25H30V12.1095C30 10.7195 30.298 9.41051 30.8976 8.18155C31.4945 6.95164 32.3129 5.88088 33.3527 4.95987C34.389 4.03979 35.6044 3.31559 36.9917 2.79199C38.3818 2.26367 39.8583 2 41.4248 2C41.6028 2 41.78 2.00344 41.9562 2.01033C42.1325 2.00344 42.3096 2 42.4876 2C44.0542 2 45.5307 2.26367 46.9207 2.79199C48.3081 3.31559 49.5235 4.03979 50.5598 4.95987C51.5996 5.88088 52.418 6.95164 53.0149 8.18155C53.6145 9.41051 53.9125 10.7195 53.9125 12.1095V25H47.3763V12.1095C47.3763 11.5209 47.2467 10.9616 46.9919 10.437C46.7362 9.9087 46.3851 9.44913 45.9367 9.05642C45.4902 8.66372 44.9707 8.35482 44.3801 8.12975C43.7895 7.90467 43.1584 7.79167 42.4876 7.79167C42.3346 7.79167 42.1835 7.79731 42.0342 7.80858V7.82248Z" fill="#3A6178"/>
</svg>
