<svg width="72" height="55" viewBox="0 0 72 55" fill="none" xmlns="http://www.w3.org/2000/svg">
<path d="M60.0293 39.1148C60.0293 31.9461 59.9837 26.3896 59.9248 26.3896C59.8674 26.3896 59.733 25.9099 59.6261 25.3236C59.2234 23.1148 58.4051 20.7198 57.3183 18.5695C54.5946 13.1803 49.7379 8.57016 43.7572 5.69666C40.155 3.96597 35.6989 2.7423 31.8603 2.42974C30.7047 2.33564 30.7122 2.31168 32.0503 1.82545C34.5621 0.912663 37.3429 0.32265 40.2288 0.0901681C42.427 -0.0869089 47.5917 0.010544 49.3863 0.262962C56.3691 1.2451 62.9009 4.6857 66.9287 9.50336C69.3467 12.3954 70.8946 15.5082 71.6576 19.0131C71.9158 20.1992 71.9178 20.311 71.9588 36.0235L72 51.84H66.0146H60.0293V39.1148ZM26.0842 40.8639C23.2883 40.3291 20.8879 39.1023 19.0737 37.2809C17.6539 35.8554 16.7485 34.3428 16.1687 32.4276C15.8879 31.5002 15.848 31.1597 15.8407 29.6309C15.8338 28.1696 15.8755 27.7401 16.1004 26.9552C17.3488 22.5993 20.8967 19.4065 25.6105 18.3967C27.3841 18.0168 29.9158 18.0545 31.6443 18.4867L32.1484 18.6127L31.9269 19.0497C31.8051 19.2901 31.5784 19.8649 31.4231 20.3271L31.1409 21.1674L31.1066 30.9701C31.0747 40.1022 31.0583 40.7786 30.867 40.8567C30.4448 41.0291 26.9753 41.0344 26.0842 40.8639Z" fill="#52BAB2"/>
<path d="M43.7523 41.2864C43.7523 26.5299 43.7671 26.868 43.0312 24.7589C42.3432 22.7873 41.4393 21.3169 39.9546 19.7541C37.1186 16.769 33.1479 15.1249 28.7873 15.1302C25.3667 15.1344 22.0934 16.2031 19.4617 18.1749C15.8493 20.8816 13.8947 24.7223 13.9134 29.0771C13.9418 35.6877 18.9667 41.3076 26.0072 42.603C27.4118 42.8614 30.2998 42.869 31.5378 42.6175L32.3954 42.4433V47.9704V53.4976L32.011 53.5662C31.086 53.7312 28.0784 53.7787 26.5395 53.6527C24.162 53.4579 22.6441 53.2109 20.6245 52.6902C4.19019 48.4528 -4.34151 33.0738 2.21921 19.5134C6.04061 11.6149 14.0349 6.10882 23.9369 4.55529C25.731 4.27382 31.579 4.23434 33.2827 4.49219C40.1367 5.52953 45.9383 8.26403 50.3059 12.5158C54.0004 16.1122 56.2606 20.1378 57.2589 24.8995L57.5332 26.208L57.5666 40.4638L57.6 54.7196H50.6761H43.7523V41.2864Z" fill="#396077"/>
</svg>
